<svg width="513" height="470" xmlns="http://www.w3.org/2000/svg" preserveAspectRatio="xMidYMid meet">
 <metadata>Created by potrace 1.15, written by Peter Selinger 2001-2017</metadata>

 <g>
  <title>Layer 1</title>
  <g id="svg_1" fill="#faf9ff" transform="translate(0, 1280) scale(0.1, -0.1)">
   <path id="svg_2" d="m484.72741,12708.18042c-132,-35 -255,-117 -321,-214c-36,-52 -77,-157 -85,-218c-4,-27 -5,-48 -3,-48c3,0 23,6 45,14c22,8 103,20 179,26c76,6 158,13 183,17c25,3 42,3 39,-1c-6,-6 -279,-50 -386,-61c-57,-6 -63,-9 -63,-30c0,-21 6,-24 43,-27l42,-4l-42,-8c-26,-5 -43,-14 -43,-22c0,-18 13,-18 155,7c111,19 457,39 445,26c-7,-8 -217,-58 -412,-98c-124,-25 -158,-36 -158,-48c0,-9 18,-47 39,-86c34,-62 41,-70 64,-67c15,1 27,-2 27,-8c0,-6 26,-10 63,-11c72,-1 67,-5 -18,-14l-60,-7l44,-39c92,-82 241,-131 397,-131c71,1 112,7 194,32c57,17 122,41 144,54c56,33 126,95 126,111c0,7 6,15 13,18c8,3 24,22 36,42l21,37l-37,-6c-21,-3 -60,-8 -88,-10c-45,-5 -46,-4 -15,4c19,5 61,14 93,20c31,6 57,16 57,21c0,5 0,12 0,16c0,11 -63,5 -289,-28c-112,-16 -206,-27 -209,-24c-3,3 -2,5 3,5c37,0 503,85 512,94c7,6 15,30 19,54c7,42 7,42 -22,37c-16,-2 -94,-9 -174,-15c-80,-6 -172,-12 -205,-15c-52,-4 -44,0 70,30c72,19 166,39 210,45c124,17 125,17 125,45c0,14 -2,25 -4,25c-2,0 -48,-12 -100,-26c-53,-14 -111,-24 -129,-22c-24,2 -9,9 63,26c184,45 170,38 163,75c-8,45 -22,69 -37,64c-7,-3 -44,-8 -82,-11l-69,-5l78,17c81,18 83,20 68,62c-22,61 -27,63 -130,45c-121,-21 -129,-13 -11,10c49,10 90,20 90,24c0,3 -7,14 -14,24c-13,16 -25,18 -127,11c-128,-8 -142,5 -27,25c111,20 112,22 22,75c-111,65 -157,77 -309,82c-107,3 -143,1 -203,-16zm421,-87c-7,-2 -19,-2 -25,0c-7,3 -2,5 12,5c14,0 19,-2 13,-5zm-56,-9c-3,-3 -12,-4 -19,-1c-8,3 -5,6 6,6c11,1 17,-2 13,-5zm-317,-130c-48,-16 -300,-57 -306,-51c-14,13 240,65 321,65c26,0 24,-2 -15,-14zm267,-130c-3,-3 -12,-4 -19,-1c-8,3 -5,6 6,6c11,1 17,-2 13,-5zm-48,-9c-8,-8 -249,-36 -282,-33c-18,2 24,10 93,19c133,17 196,22 189,14zm288,-1c-3,-3 -12,-4 -19,-1c-8,3 -5,6 6,6c11,1 17,-2 13,-5zm-122,-66c-371,-60 -578,-88 -638,-87c-71,1 -71,1 -27,11c61,12 657,86 695,86c17,0 3,-5 -30,-10zm5,-33c0,-2 -30,-13 -67,-24c-70,-20 -244,-39 -230,-25c6,6 184,38 290,53c4,1 7,-1 7,-4zm-95,-91c-33,-7 -69,-13 -80,-13c-34,1 68,27 105,27c28,0 23,-3 -25,-14zm200,-63c-16,-14 -273,-59 -523,-92c-230,-29 -320,-34 -192,-10c36,7 119,25 185,41c66,16 179,34 250,40c128,11 276,26 285,29c2,0 0,-3 -5,-8zm-320,-101c-75,-18 -210,-34 -370,-45c-56,-4 -50,-1 35,11c58,8 161,23 230,33c163,24 205,24 105,1zm-112,-267c-7,-2 -19,-2 -25,0c-7,3 -2,5 12,5c14,0 19,-2 13,-5zm124,-9c-3,-3 -12,-4 -19,-1c-8,3 -5,6 6,6c11,1 17,-2 13,-5zm-50,-10c-3,-3 -12,-4 -19,-1c-8,3 -5,6 6,6c11,1 17,-2 13,-5z"/>
   <path id="svg_3" d="m3617.72741,11271.18042c-64,-33 -115,-55 -115,-48c0,2 23,16 50,30c28,14 50,28 50,31c0,17 -83,-13 -169,-61c-78,-43 -108,-55 -161,-61c-60,-6 -139,-29 -129,-38c2,-2 27,0 56,3c29,4 50,4 47,0c-2,-4 -34,-11 -71,-15c-92,-9 -180,-63 -105,-64c34,-1 13,-14 -38,-25c-44,-9 -72,-31 -117,-91c-28,-37 -33,-48 -22,-55c15,-10 77,-3 94,11c18,15 139,29 153,17c7,-5 11,-11 9,-14c-2,-2 -66,-12 -142,-23c-76,-10 -142,-23 -148,-29c-5,-5 -15,-7 -21,-5c-7,3 -97,-13 -200,-35c-134,-29 -223,-43 -314,-47c-70,-4 -125,-4 -122,-1c10,10 376,86 505,105l130,18l3,63l3,63l-73,-6l-73,-5l64,14c36,8 67,17 69,20c9,9 13,73 5,78c-5,2 -48,-2 -98,-9c-49,-7 -115,-13 -145,-12l-55,0l44,14c24,7 49,21 55,30c8,10 46,21 109,31c82,14 97,19 97,35c0,22 -6,22 -79,4c-57,-14 -290,-41 -297,-34c-2,2 77,17 176,33c99,16 186,32 193,37c9,5 9,12 1,25c-10,15 -26,18 -110,18c-54,0 -114,-3 -132,-6c-17,-4 -35,-3 -38,2c-5,9 -689,11 -761,2l-41,-5l0,-134c0,-104 3,-134 13,-134c7,0 42,9 77,21c45,15 96,22 178,24c131,4 133,5 -95,-38l-170,-32l1,-60c1,-33 2,-74 3,-91l1,-30l158,26c184,32 269,43 262,36c-3,-2 -97,-21 -210,-41c-113,-20 -206,-38 -208,-40c-20,-20 31,-17 183,11c178,33 243,41 175,23c-19,-6 -48,-16 -65,-23c-16,-7 -86,-21 -155,-31c-145,-20 -150,-21 -150,-35c0,-5 24,-11 53,-11l52,-1l-47,-10c-31,-7 -48,-15 -48,-25c0,-9 6,-12 18,-9c75,22 277,55 371,60c63,4 113,4 110,1c-3,-3 -115,-27 -249,-54c-133,-27 -246,-54 -250,-61c-4,-6 -7,-42 -6,-78c1,-74 -3,-71 76,-57c22,4 23,3 5,-5c-11,-5 -32,-14 -47,-20c-21,-7 -28,-16 -28,-35c0,-14 4,-25 10,-25c15,0 303,50 325,57c20,6 20,5 1,-16c-11,-11 -35,-25 -55,-31c-31,-8 -227,-30 -270,-30c-9,0 -12,-8 -9,-25c3,-14 1,-25 -3,-25c-10,0 -12,-127 -3,-182l6,-36l22,24c17,20 46,30 155,54c74,16 136,28 138,27c1,-2 -71,-29 -161,-62l-164,-58l-1,-68c-1,-48 2,-69 11,-69c9,0 9,-3 0,-12c-7,-7 -12,-32 -12,-56l0,-45l43,6l42,5l-40,-12c-24,-8 -41,-20 -43,-31c-4,-15 2,-17 45,-12l48,6l-40,-11c-22,-6 -42,-12 -44,-14c-2,-2 -5,-33 -7,-69c-4,-78 -8,-77 134,-41c120,30 322,69 328,63c2,-2 -22,-16 -53,-30c-37,-16 -117,-35 -223,-53c-91,-15 -171,-33 -179,-40c-17,-16 -6,-34 22,-35l22,0l-22,-9c-20,-8 -23,-17 -23,-58c0,-45 2,-49 23,-46c131,21 320,44 323,41c7,-7 -111,-34 -231,-53c-112,-17 -141,-28 -116,-43c11,-7 11,-9 0,-13c-8,-3 -11,-9 -6,-13c4,-5 65,8 135,28c114,33 550,122 558,114c2,-1 -148,-38 -334,-81c-185,-44 -343,-81 -349,-84c-9,-3 -13,-25 -13,-63l0,-59l58,-1c63,-1 61,-4 -10,-14l-47,-6l0,-266c0,-146 1,-269 4,-272c2,-4 44,0 92,8c52,8 97,11 109,6c16,-6 12,-9 -21,-16c-22,-4 -60,-13 -85,-18c-25,-5 -57,-12 -72,-15l-28,-6l0,-190c0,-185 1,-190 20,-190c12,0 96,11 188,25c242,37 596,84 600,80c3,-3 -260,-68 -448,-110c-58,-13 -157,-29 -220,-35c-63,-7 -122,-16 -130,-21c-27,-15 309,-10 405,6c50,8 149,22 220,30c72,8 150,17 175,21c25,3 43,3 40,0c-6,-5 -238,-52 -295,-59c-16,-2 97,-4 252,-4l281,-1l1,174l1,174l-28,1l-27,1l25,7c23,6 25,12 28,68l3,62l-108,-5c-129,-5 -124,4 8,14l94,7l3,323c2,247 -1,322 -10,322c-9,0 -9,3 0,12c11,11 18,98 8,98c-3,0 -60,-13 -128,-30c-68,-16 -179,-36 -248,-45c-69,-9 -207,-29 -307,-46c-99,-16 -189,-29 -200,-28c-42,1 312,92 543,139c322,65 344,70 344,81c0,12 -23,11 -100,-6c-36,-8 -74,-14 -85,-14c-19,0 7,9 128,43l58,17l-2,74c-1,50 -6,75 -14,75c-6,0 -47,-11 -91,-23c-75,-23 -154,-39 -154,-33c0,6 174,66 215,74l40,8l1,102c1,101 1,102 -23,102c-21,0 -22,3 -13,20c6,11 17,20 25,20c11,0 15,12 15,41c0,23 7,57 16,77c44,98 67,141 99,182c18,25 32,46 31,47c-2,2 -49,-6 -105,-18c-57,-11 -105,-19 -107,-16c-2,2 51,16 120,32c68,15 134,36 147,46l24,19l-30,1c-20,0 12,15 100,46c119,41 142,45 270,53c77,5 158,11 180,14c26,4 20,1 -15,-7l-55,-13l40,-14c22,-7 50,-20 63,-28c22,-15 28,-15 177,3c30,4 35,3 20,-4c-11,-5 -38,-10 -60,-11c-22,-1 -48,-5 -58,-9c-16,-6 -15,-9 10,-32c15,-14 48,-47 71,-73c41,-45 45,-47 74,-37c34,12 158,26 158,19c0,-3 -40,-16 -89,-28l-89,-22l10,-28c15,-46 26,-49 113,-34c44,7 87,13 95,13c27,-1 -58,-28 -107,-34c-75,-10 -73,-8 -56,-62c8,-26 17,-64 20,-83c3,-19 6,-36 7,-37c1,-1 20,4 41,11c22,7 94,16 160,20c109,5 118,5 95,-9c-28,-17 -174,-65 -196,-65c-7,0 -14,7 -14,15c0,11 -11,15 -39,15l-40,0l2,-67c2,-62 4,-68 27,-74c24,-7 24,-7 3,-8c-21,-1 -23,-6 -23,-57c0,-41 3,-55 13,-51c27,10 129,28 134,24c2,-3 -22,-13 -54,-22c-32,-9 -66,-18 -75,-21c-13,-4 -18,-16 -18,-40c0,-29 3,-34 18,-30c47,14 262,66 274,66c9,0 8,-5 -3,-16c-9,-8 -76,-33 -149,-55c-74,-22 -135,-40 -136,-42c-3,-2 -6,-92 -5,-121c1,-13 6,-16 19,-11c40,17 83,23 79,12c-2,-7 -23,-17 -48,-23c-33,-8 -45,-16 -47,-32c-2,-16 2,-22 15,-22c17,-1 17,-1 -1,-15c-17,-13 -19,-28 -18,-127c1,-259 1,-261 15,-250c6,5 35,13 62,16l50,5l-62,-20l-63,-21l0,-52l0,-53l31,5c22,3 30,1 25,-7c-4,-6 -18,-11 -32,-11c-21,0 -24,-5 -25,-37c-4,-102 0,-177 11,-183c9,-6 9,-9 1,-11c-10,-4 -17,-135 -12,-207c1,-10 20,-11 84,-6c101,8 98,-2 -6,-17c-71,-11 -77,-13 -78,-35c0,-13 0,-52 -1,-86l0,-63l53,-8c69,-10 804,-1 929,12c52,5 101,10 108,10c19,2 14,21 -5,21c-17,1 -17,1 0,11c13,8 17,24 17,75l0,64l-27,-5l-28,-5l28,11c37,15 34,37 -5,42l-33,4l33,1c31,2 32,3 32,47c0,29 -4,45 -12,45c-7,0 -90,-11 -184,-25c-208,-29 -335,-40 -314,-27c16,11 233,45 403,63c70,8 106,16 104,23c-2,6 -13,10 -23,9c-10,-1 -57,-4 -104,-7c-69,-4 -76,-3 -35,4c151,27 163,31 163,57c0,23 -3,25 -37,19c-101,-17 -115,-18 -108,-11c4,5 38,16 75,25c67,16 67,16 70,53c3,34 1,37 -25,38c-28,1 -28,1 -3,8c24,6 25,11 28,85l2,78l-62,-6l-63,-5l40,14c22,7 50,14 63,14c22,1 22,2 22,166l0,165l-32,1l-33,1l30,7c34,7 46,37 18,44c-17,4 -17,5 0,6c14,1 17,10 17,51l0,50l-37,1l-38,2l34,6c36,6 56,31 25,31c-16,0 -16,1 -1,18c18,20 23,62 8,62c-5,0 -14,-6 -20,-14c-6,-7 -48,-21 -94,-30c-45,-10 -91,-20 -102,-23c-35,-9 -4,13 79,58c43,23 92,45 110,48c27,6 31,11 34,45l3,38l-43,-7c-24,-3 -56,-9 -73,-12c-45,-8 -27,3 45,29c61,22 65,25 68,57l3,33l-53,-6l-53,-6l53,16c39,12 52,21 52,35c0,15 -5,18 -22,14c-107,-26 -178,-42 -178,-39c0,2 5,14 11,28c13,27 118,76 164,76c22,0 25,4 25,35l0,34l-37,-13c-46,-16 -113,-29 -113,-22c0,3 34,15 76,27l75,22l-7,56c-3,31 -7,57 -8,57c0,1 -62,-16 -136,-36c-74,-21 -136,-38 -137,-37c-1,1 6,12 15,25c13,16 41,27 107,42c50,11 103,20 118,20c25,0 47,23 35,36c-3,2 -37,-2 -77,-11c-78,-16 -108,-19 -98,-8c4,3 42,14 84,23c74,16 78,18 80,46c4,54 -2,56 -123,39c-181,-26 -181,-26 -159,-16c11,5 78,16 148,26c102,15 127,21 122,32c-3,8 -5,19 -5,25c0,6 -19,9 -46,6c-44,-3 -45,-3 -23,12c61,40 62,42 48,90c-7,25 -19,51 -28,58c-9,8 -10,12 -3,12c15,0 8,35 -18,95c-9,22 -20,48 -24,58c-4,14 -13,17 -33,13c-16,-3 -88,-15 -160,-26l-133,-20l-20,20c-16,16 -33,20 -90,20c-38,0 -70,3 -70,8c0,4 96,22 213,41c251,40 252,40 235,64c-12,15 -20,15 -128,-2c-175,-28 -215,-32 -205,-22c6,6 75,22 155,36c80,15 147,29 149,31c14,13 -18,16 -72,7c-34,-6 -64,-9 -66,-7c-2,1 22,10 53,19c31,9 56,19 56,22c0,12 -35,63 -45,64c-5,1 -23,0 -39,-1c-18,-1 -26,2 -22,9c4,6 16,11 27,11c12,0 19,5 16,13c-6,17 -53,14 -317,-17c-222,-26 -278,-30 -269,-22c7,7 180,34 369,56c96,11 175,22 177,24c2,1 -6,11 -16,20c-18,16 -27,17 -143,2c-67,-8 -154,-18 -193,-21l-70,-5l40,16c22,8 98,24 169,34c71,11 131,21 133,24c2,2 -10,15 -27,30c-29,24 -40,26 -128,27l-97,2l73,10c39,5 72,13 72,16c0,6 -58,41 -130,77c-25,12 -93,39 -152,58l-107,36l-78,-14c-114,-21 -330,-49 -344,-44c-7,2 8,16 34,31c66,39 67,47 5,47c-37,-1 -68,-9 -103,-27zm65,-7c0,-5 -72,-51 -92,-59c-32,-11 -19,2 30,33c44,28 62,35 62,26zm279,-70c-11,-11 -184,-55 -236,-60l-58,-6l85,25c98,29 222,53 209,41zm-1714,-37c-55,-17 -205,-38 -308,-44c-127,-6 -94,7 71,29c64,9 128,18 142,20c14,2 48,4 75,4c45,0 47,-1 20,-9zm2055,-20c-83,-37 -182,-59 -260,-58l-75,1l50,14c76,21 277,63 305,63c20,0 16,-4 -20,-20zm-850,-13c0,-2 -11,-11 -25,-20c-14,-9 -25,-13 -25,-8c0,5 10,14 23,20c27,13 27,13 27,8zm-1070,-28c-14,-5 -61,-11 -105,-14c-44,-2 -73,-1 -65,1c22,8 131,22 165,23c30,1 30,1 5,-10zm-90,-57c-14,-5 -48,-11 -75,-14l-50,-6l45,14c25,7 59,13 75,13c29,0 29,0 5,-7zm518,2c-10,-2 -26,-2 -35,0c-10,3 -2,5 17,5c19,0 27,-2 18,-5zm1327,-18c-183,-31 -208,-35 -202,-28c15,15 200,51 262,51c69,0 68,-1 -60,-23zm-468,9c-3,-3 -12,-4 -19,-1c-8,3 -5,6 6,6c11,1 17,-2 13,-5zm170,-20c-3,-3 -12,-4 -19,-1c-8,3 -5,6 6,6c11,1 17,-2 13,-5zm-1360,-10c-3,-3 -12,-4 -19,-1c-8,3 -5,6 6,6c11,1 17,-2 13,-5zm1318,0c-24,-9 -349,-74 -353,-70c-12,13 258,74 328,74c19,0 31,-1 25,-4zm-490,-34c-16,-4 -39,-8 -50,-8c-16,0 -15,2 5,8c14,4 36,8 50,8c22,0 22,-1 -5,-8zm-897,-5c-5,-6 -570,-96 -574,-92c-6,6 306,79 372,86c80,10 210,13 202,6zm117,-106c-49,-11 -94,-18 -100,-16c-12,4 131,35 165,35c14,0 -15,-9 -65,-19zm2190,-19c-32,-21 -41,-20 -32,5c4,8 18,15 34,15l28,0l-30,-20zm-1262,3c-7,-2 -21,-2 -30,0c-10,3 -4,5 12,5c17,0 24,-2 18,-5zm1201,-6c-6,-17 -238,-103 -329,-122c-96,-20 -226,-38 -232,-32c-2,3 12,10 31,17c20,6 36,17 36,24c0,6 61,31 138,54c196,61 368,90 356,59zm-1257,-3c-3,-3 -12,-4 -19,-1c-8,3 -5,6 6,6c11,1 17,-2 13,-5zm542,-18c-5,-5 -264,-46 -282,-45c-25,2 51,21 133,34c86,13 157,18 149,11zm211,-12c-60,-17 -436,-101 -438,-99c-9,8 225,77 303,89c84,13 169,19 135,10zm-632,-39c-20,-7 -71,-20 -115,-29c-79,-16 -396,-65 -400,-62c-15,14 55,30 267,64c287,45 299,46 248,27zm187,-31c-207,-76 -763,-219 -782,-200c-3,3 5,20 18,38c12,18 23,34 23,35c4,7 416,91 556,113c205,33 244,35 185,14zm194,-28c-10,-10 -315,-96 -338,-95c-32,1 8,15 189,64c119,32 159,40 149,31zm-929,-29c-9,-8 -119,-29 -270,-50c-281,-41 -295,-42 -265,-25c16,9 462,82 530,87c17,1 17,-1 5,-12zm1037,-3c-16,-8 -36,-13 -45,-11c-11,2 -5,7 18,14c50,16 59,15 27,-3zm-1154,-61c-7,-2 -19,-2 -25,0c-7,3 -2,5 12,5c14,0 19,-2 13,-5zm-83,-15c-25,-6 -148,-29 -275,-53c-197,-37 -226,-40 -207,-24c13,10 44,21 70,25c26,4 126,19 222,34c179,28 278,37 190,18zm-420,-12c-23,-13 -439,-80 -447,-73c-9,10 374,84 442,85l30,1l-25,-13zm554,-26c-15,-22 -30,-40 -33,-40c-4,0 -173,-25 -376,-55c-203,-30 -371,-53 -373,-51c-2,3 16,15 40,29c33,19 114,37 353,81c171,32 326,61 345,66c70,16 73,14 44,-30zm1391,31c-32,-30 -385,-115 -402,-97c-6,5 241,84 298,95c61,12 115,13 104,2zm225,-1c21,-13 7,-17 -124,-35c-151,-21 -160,-19 -91,14c48,24 74,30 130,30c39,0 77,-3 85,-9zm-2280,-65c0,-2 -17,-13 -37,-24c-36,-17 -400,-87 -409,-78c-8,8 226,69 331,87c123,22 115,21 115,15zm1506,-26c-49,-16 -90,-28 -93,-26c-7,7 131,56 157,55c14,0 -15,-13 -64,-29zm452,-15c-8,-7 -176,-34 -208,-33c-40,1 -11,8 91,23c113,17 124,18 117,10zm627,-43c-52,-19 -233,-47 -242,-38c-17,18 146,55 247,55l45,1l-50,-18zm-291,-41c-10,-10 -163,-34 -170,-27c-5,5 127,34 161,36c12,1 16,-2 9,-9zm343,-20c-67,-21 -245,-55 -252,-48c-5,5 268,66 295,66c8,0 -11,-8 -43,-18zm-257,-14c-20,-8 -56,-17 -80,-21c-42,-6 -44,-6 -24,8c19,15 57,23 114,25c21,0 19,-2 -10,-12zm-150,-11c0,-23 -124,-57 -349,-95c-153,-26 -187,-24 -77,5c49,13 93,29 97,37c5,8 65,21 161,34c84,12 156,22 161,23c4,0 7,-1 7,-4zm480,-6c-52,-35 -68,-39 -95,-25c-27,14 -27,14 27,24c77,14 87,14 68,1zm-104,-58c-3,-5 -27,-14 -53,-20c-49,-11 -274,-42 -296,-40c-17,1 95,37 168,54c68,15 189,20 181,6zm-446,-56c-46,-18 -74,-17 -35,0c17,8 39,14 50,14c13,0 8,-5 -15,-14zm-2161,-20c-7,-7 -301,-97 -305,-93c-6,6 260,97 285,97c13,1 22,-1 20,-4zm2026,-10c-16,-8 -41,-14 -55,-14c-22,0 -21,2 10,14c48,19 86,18 45,0zm655,-29c-73,-27 -83,-29 -78,-15c3,8 20,17 39,20c58,11 76,8 39,-5zm-116,-21c-4,-8 -7,-15 -8,-16c-17,-6 -156,-24 -156,-20c0,12 46,36 80,42c67,12 90,10 84,-6zm-219,-36c-22,-10 -49,-18 -60,-18c-26,1 52,38 80,37c13,0 6,-6 -20,-19zm-1765,-3c-19,-7 -53,-16 -75,-19c-36,-5 -34,-4 15,13c62,21 116,26 60,6zm1610,-20c-25,-13 -278,-52 -286,-44c-4,5 257,56 291,57c17,0 17,-2 -5,-13zm-307,-53c-7,-2 -19,-2 -25,0c-7,3 -2,5 12,5c14,0 19,-2 13,-5zm565,-35c-19,-29 -159,-80 -165,-60c-7,19 -20,15 -82,-23c-43,-27 -71,-36 -121,-41l-65,-5l105,46c90,40 286,102 329,104c11,1 11,-3 -1,-21zm-2058,3c-19,-11 -107,-26 -99,-17c3,4 26,10 50,15c59,12 67,12 49,2zm-765,-40c-31,-13 -91,-24 -83,-16c8,8 63,23 88,23c9,1 7,-3 -5,-7zm3075,5c0,-2 -7,-7 -16,-10c-8,-3 -12,-2 -9,4c6,10 25,14 25,6zm-2300,-56c-19,-10 -64,-21 -100,-25c-36,-3 -78,-9 -95,-12c-23,-4 -27,-2 -19,7c6,6 56,20 110,30c131,24 148,24 104,0zm2117,-1c-22,-12 -52,-19 -70,-17c-31,3 -30,4 18,20c72,23 99,22 52,-3zm-467,7c0,-12 -163,-64 -215,-69c-72,-7 -64,-4 85,39c121,35 130,37 130,30zm525,-55c-6,-5 -27,-16 -49,-25c-33,-14 -37,-14 -26,-1c7,8 27,19 44,24c42,12 41,12 31,2zm-2608,-42c-19,-11 -407,-82 -414,-76c-5,5 236,66 286,72c18,2 36,7 39,10c3,3 28,5 56,5c40,-1 47,-3 33,-11zm2248,-4c-16,-7 -46,-16 -65,-20c-28,-6 -33,-5 -23,5c7,7 29,16 50,20c58,12 71,10 38,-5zm205,0c0,-10 -80,-57 -90,-53c-7,2 10,16 37,31c52,29 53,29 53,22zm-324,-12c-7,-7 -134,-42 -151,-41c-14,0 127,47 144,47c8,1 11,-2 7,-6zm149,-22c-12,-11 -168,-61 -174,-55c-10,10 19,26 80,44c71,21 108,25 94,11zm310,-20c-3,-6 -11,-11 -17,-11c-6,0 -6,6 2,15c14,17 26,13 15,-4zm-59,0c-8,-13 -67,-38 -106,-45c-26,-5 -19,0 30,23c71,32 84,36 76,22zm-2381,-36c-55,-19 -90,-18 -50,0c17,8 44,14 60,14c29,-1 28,-2 -10,-14zm295,-10c-108,-19 -196,-28 -189,-21c9,9 176,34 224,34c29,0 20,-4 -35,-13zm1620,6c0,-8 -197,-62 -217,-60c-10,1 187,67 205,68c6,1 12,-3 12,-8zm146,-6c-22,-17 -145,-59 -152,-52c-9,9 22,25 86,45c79,24 91,26 66,7zm-2531,-24c-29,-12 -111,-23 -102,-15c4,4 26,11 50,15c58,9 76,9 52,0zm2982,3c-3,-3 -12,-4 -19,-1c-8,3 -5,6 6,6c11,1 17,-2 13,-5zm-2420,-10c-3,-3 -12,-4 -19,-1c-8,3 -5,6 6,6c11,1 17,-2 13,-5zm2376,-1c-7,-2 -19,-2 -25,0c-7,3 -2,5 12,5c14,0 19,-2 13,-5zm-2247,-19c-49,-18 -52,-20 -37,-38c10,-12 7,-16 -21,-21c-52,-10 -608,-71 -608,-67c0,2 28,16 63,32c51,23 106,35 302,64c132,19 251,37 265,39c14,2 36,5 50,5c19,0 16,-3 -14,-14zm2164,7c-18,-10 -95,-23 -87,-14c7,6 64,21 87,22c13,0 13,-1 0,-8zm129,-15c-2,-2 -30,-13 -61,-24c-43,-16 -56,-18 -52,-8c3,8 22,19 42,24c38,10 79,15 71,8zm-154,-45c-6,-5 -30,-11 -55,-15l-45,-5l40,14c48,16 73,19 60,6zm-210,-21c-28,-12 -47,-12 -40,0c3,6 18,10 33,9c24,0 25,-1 7,-9zm-1850,-36c-27,-7 -54,-13 -60,-13c-17,2 69,27 90,27c11,0 -2,-6 -30,-14zm-335,-4c-14,-5 -128,-23 -255,-40c-126,-16 -246,-32 -265,-35c-35,-5 -35,-5 -10,9c14,8 111,24 215,36c105,12 217,25 250,30c80,10 95,10 65,0zm2480,-44c-47,-24 -100,-47 -118,-51c-31,-6 -33,-5 -23,12c17,32 37,44 108,63c116,31 126,23 33,-24zm-335,24c-28,-12 -37,-12 -30,0c3,6 16,10 28,9c21,0 21,-1 2,-9zm-1978,-16c-3,-3 -12,-4 -19,-1c-8,3 -5,6 6,6c11,1 17,-2 13,-5zm2138,-48c-12,-17 -29,-26 -63,-30c-26,-4 -63,-10 -82,-13c-56,-9 -25,12 60,41c96,33 105,33 85,2zm-410,-6c-3,-5 -14,-10 -23,-10c-15,0 -15,2 -2,10c20,13 33,13 25,0zm725,-4c-16,-15 -121,-35 -107,-20c5,5 32,14 60,20c29,7 54,12 57,13c2,0 -2,-5 -10,-13zm-824,-11c-19,-14 -56,-21 -56,-10c0,7 41,24 60,24c11,0 10,-3 -4,-14zm771,-42c-8,-7 -199,-31 -256,-32c-68,-2 -21,11 91,24c135,15 174,17 165,8zm-800,-29c-3,-3 -12,-4 -19,-1c-8,3 -5,6 6,6c11,1 17,-2 13,-5zm-1322,-15c-22,-4 -53,-8 -70,-7c-29,1 -29,1 5,8c19,4 51,7 70,8l35,0l-40,-9zm1733,0c-10,-5 -42,-12 -70,-14l-53,-4l55,13c70,18 91,19 68,5zm332,1c-15,-8 -134,-30 -245,-45c-42,-6 -48,-4 -37,7c7,7 67,20 140,29c163,21 161,21 142,9zm-322,-42c-4,-12 -87,-32 -95,-24c-4,4 73,34 90,35c5,1 7,-5 5,-11zm-1805,-9c-6,-6 -39,-12 -74,-14l-64,-4l70,13c39,8 72,14 75,15c2,0 -1,-4 -7,-10zm1518,-33c-10,-12 -71,-28 -71,-19c0,5 62,32 74,33c5,0 3,-6 -3,-14zm59,4c0,-5 -5,-10 -11,-10c-5,0 -7,5 -4,10c3,6 8,10 11,10c2,0 4,-4 4,-10zm-2173,-26c-3,-3 -12,-4 -19,-1c-8,3 -5,6 6,6c11,1 17,-2 13,-5zm2738,-34c-3,-5 -16,-10 -28,-9c-21,0 -21,1 -2,9c28,12 37,12 30,0zm135,0c-8,-5 -26,-10 -40,-10c-20,0 -22,2 -10,10c8,5 26,10 40,10c20,0 22,-2 10,-10zm-2782,-40c-92,-24 -178,-34 -178,-21c0,6 6,11 13,12c6,0 48,6 92,14c117,19 153,17 73,-5zm42,-36c-76,-18 -136,-28 -129,-20c9,9 128,34 159,34c14,0 0,-6 -30,-14zm-320,-3c-20,-12 -130,-34 -136,-28c-6,5 102,35 131,36c16,0 17,-1 5,-8zm3039,-5c-2,-2 -35,-6 -74,-9c-44,-4 -59,-3 -40,2c30,9 122,14 114,7zm-3009,-36c-8,-5 -28,-9 -45,-9c-29,1 -29,1 -5,9c14,4 34,8 45,9c16,1 17,-1 5,-9zm3040,6c0,-3 -4,-8 -10,-11c-5,-3 -10,-1 -10,4c0,6 5,11 10,11c6,0 10,-2 10,-4zm-119,-27c-29,-17 -121,-42 -129,-35c-5,6 53,41 78,47c14,4 39,7 55,8l30,1l-34,-21zm-174,-25c-27,-14 -53,-24 -59,-22c-18,6 55,48 82,47c21,0 17,-4 -23,-25zm-2080,0c-3,-3 -12,-4 -19,-1c-8,3 -5,6 6,6c11,1 17,-2 13,-5zm1993,2c0,-8 -67,-46 -80,-46c-8,0 -4,10 10,25c19,21 70,36 70,21zm-2043,-12c-3,-3 -12,-4 -19,-1c-8,3 -5,6 6,6c11,1 17,-2 13,-5zm1921,-10c-13,-14 -157,-48 -165,-40c-2,1 3,10 10,19c10,15 80,31 152,36c18,1 18,0 3,-15zm-228,-18c0,-2 -15,-14 -34,-25c-35,-22 -66,-27 -66,-11c0,7 38,23 98,39c1,1 2,-1 2,-3zm30,-26c0,-5 -5,-10 -11,-10c-5,0 -7,5 -4,10c3,6 8,10 11,10c2,0 4,-4 4,-10zm-160,-19c0,-5 -14,-11 -30,-13c-33,-5 -29,7 5,15c11,3 21,5 23,6c1,0 2,-3 2,-8zm667,-7c-3,-3 -12,-4 -19,-1c-8,3 -5,6 6,6c11,1 17,-2 13,-5zm-221,-33c-3,-5 -27,-12 -53,-15c-27,-4 -61,-9 -78,-13c-16,-3 -27,-2 -23,2c5,5 41,14 80,20c40,7 74,13 76,14c2,0 1,-3 -2,-8zm-340,-50c-4,-5 -25,-12 -49,-16c-23,-3 -51,-9 -62,-12c-14,-4 -17,-2 -10,5c6,6 33,15 60,20c68,13 67,13 61,3zm-161,-31c-3,-5 -13,-10 -21,-10c-8,0 -12,5 -9,10c3,6 13,10 21,10c8,0 12,-4 9,-10zm-1520,-66c-86,-24 -145,-36 -157,-32c-17,6 138,46 177,46c24,1 19,-2 -20,-14zm-245,-24c-14,-4 -36,-8 -50,-8l-25,0l25,8c14,4 36,8 50,8l25,0l-25,-8zm2633,-37c-7,-2 -19,-2 -25,0c-7,3 -2,5 12,5c14,0 19,-2 13,-5zm-2818,-13c-11,-5 -42,-8 -70,-8c-43,0 -46,1 -20,8c44,11 116,11 90,0zm2742,4c-3,-3 -12,-4 -19,-1c-8,3 -5,6 6,6c11,1 17,-2 13,-5zm-2422,-14c-11,-5 -33,-8 -50,-8l-30,0l30,8c17,4 39,8 50,8l20,1l-20,-9zm2370,-45c-24,-9 -400,-76 -514,-91c-94,-13 -129,-14 -143,-5c-10,6 -35,11 -55,12c-72,1 -1,17 149,34c392,45 598,63 563,50zm-37,-56c-19,-10 -146,-29 -193,-28c-31,1 142,36 185,38c21,0 22,-1 8,-10zm-2423,-40c-39,-11 -429,-59 -469,-58c-20,1 4,10 64,26c68,17 112,23 155,20c33,-3 98,1 145,8c47,7 96,13 110,13c22,0 22,-1 -5,-9zm1740,-18c-28,-11 -142,-25 -133,-16c11,11 68,23 113,23c30,1 35,-1 20,-7zm702,-7c-3,-3 -12,-4 -19,-1c-8,3 -5,6 6,6c11,1 17,-2 13,-5zm-59,-11c-10,-2 -26,-2 -35,0c-10,3 -2,5 17,5c19,0 27,-2 18,-5zm-555,-30c-7,-2 -21,-2 -30,0c-10,3 -4,5 12,5c17,0 24,-2 18,-5zm-66,-9c-3,-3 -12,-4 -19,-1c-8,3 -5,6 6,6c11,1 17,-2 13,-5zm356,-1c-7,-2 -19,-2 -25,0c-7,3 -2,5 12,5c14,0 19,-2 13,-5zm-60,-10c-7,-2 -21,-2 -30,0c-10,3 -4,5 12,5c17,0 24,-2 18,-5zm-76,-9c-3,-3 -12,-4 -19,-1c-8,3 -5,6 6,6c11,1 17,-2 13,-5zm-54,-11c-7,-2 -21,-2 -30,0c-10,3 -4,5 12,5c17,0 24,-2 18,-5zm22,-44c-22,-4 -58,-7 -80,-7l-40,1l45,7c25,4 61,7 80,7l35,1l-40,-9zm594,-33c-9,-10 -260,-77 -272,-73c-12,4 38,21 173,58c62,17 108,24 99,15zm-436,-33c-7,-2 -19,-2 -25,0c-7,3 -2,5 12,5c14,0 19,-2 13,-5zm104,-28c-78,-31 -115,-38 -335,-63c-136,-16 -249,-28 -250,-26c-8,6 88,26 358,73c157,27 292,49 300,50c8,0 -25,-15 -73,-34zm-1977,-18c0,-9 -26,-17 -82,-24c-46,-6 -84,-10 -86,-8c-2,2 139,41 161,44c4,1 7,-5 7,-12zm1445,-17c-11,-5 -36,-8 -55,-8l-35,1l35,7c19,4 44,8 55,8l20,1l-20,-9zm828,-57c-7,-2 -19,-2 -25,0c-7,3 -2,5 12,5c14,0 19,-2 13,-5z"/>
   <path id="svg_4" d="m202.72741,11233.18042l0,-42l123,18c67,10 133,18 147,18c23,-1 -47,-15 -202,-40c-68,-11 -68,-11 -68,-44l0,-33l64,14c93,19 348,56 353,50c11,-10 -200,-69 -304,-84l-113,-16l0,-70l0,-69l43,7c75,13 441,56 462,55c42,-2 -44,-20 -267,-58c-124,-22 -231,-42 -237,-46c-14,-8 -14,-52 -1,-60c5,-3 71,1 146,10c74,9 138,15 140,12c2,-2 -55,-21 -128,-42c-73,-20 -140,-41 -149,-46c-13,-7 -15,-24 -11,-106c2,-54 5,-99 5,-99c1,-1 72,9 157,21c85,13 236,35 335,49c99,15 215,33 259,41c83,16 113,18 104,10c-12,-12 -319,-66 -570,-99c-146,-20 -270,-36 -276,-36c-5,0 -10,-18 -10,-41l-1,-40l47,5l47,6l-44,-13c-42,-12 -68,-37 -39,-37c10,0 9,-3 -2,-10c-32,-20 5,-22 114,-5c159,24 167,14 10,-13c-70,-12 -130,-25 -133,-28c-3,-3 -6,-44 -6,-92l0,-86l50,3c56,3 55,-9 -2,-18c-29,-5 -39,-11 -41,-29c-2,-13 2,-22 10,-22c8,0 6,-4 -4,-11c-10,-5 -18,-14 -18,-19c0,-6 8,-10 18,-10c16,-1 16,-1 0,-11c-19,-11 -24,-54 -8,-64c5,-3 72,3 147,14c76,11 176,22 223,25l85,5l-60,-20c-33,-11 -134,-29 -225,-40c-91,-12 -167,-22 -169,-25c-3,-3 -5,-210 -2,-251c1,-8 14,-7 49,3c50,16 293,55 327,53c30,-2 -73,-26 -229,-54c-77,-14 -144,-29 -149,-34c-12,-12 0,-31 21,-32c12,0 11,-3 -5,-9c-18,-7 -22,-16 -20,-40c2,-16 6,-32 9,-35c3,-3 43,3 89,14c114,27 370,73 375,69c2,-3 -14,-14 -35,-26c-26,-15 -106,-35 -233,-58c-106,-20 -197,-40 -202,-44c-5,-6 -4,-15 4,-25c8,-10 9,-15 1,-15c-6,0 -11,-7 -11,-16c0,-14 7,-15 38,-10c121,19 485,66 489,63c9,-10 -177,-50 -335,-72c-96,-14 -176,-25 -178,-25c-2,0 -4,-6 -4,-13c0,-11 11,-12 57,-5c87,14 96,4 16,-16c-50,-12 -74,-23 -78,-36c-7,-24 5,-52 20,-46c7,2 34,7 61,10c49,5 49,5 -9,-8c-60,-14 -75,-21 -64,-32c5,-6 304,49 582,106c159,33 269,50 321,50c48,0 52,2 57,28c3,15 2,31 -3,36c-5,4 -49,1 -101,-8c-51,-8 -95,-14 -97,-12c-6,7 110,47 154,53l44,6l0,53c0,30 -3,54 -7,54c-5,0 -37,-9 -73,-21c-61,-19 -329,-63 -337,-56c-5,6 304,86 360,93c29,4 51,13 56,23c10,18 7,258 -2,268c-4,3 -202,-22 -440,-56c-238,-33 -437,-61 -442,-60c-34,3 647,133 788,150c67,8 97,16 97,24c0,8 3,20 6,29c5,13 -2,16 -37,17l-44,1l35,10c19,5 38,15 42,21c7,11 4,154 -3,161c-2,3 -40,0 -83,-5c-44,-4 -82,-6 -84,-4c-7,6 12,11 98,27c93,16 90,34 -5,31l-70,-2l50,13c28,8 61,16 75,20c25,5 26,8 25,80c0,41 -3,77 -5,79c-3,2 -135,-15 -295,-39c-159,-24 -297,-43 -305,-41c-18,3 188,38 390,67c225,31 210,28 210,55c0,28 -1,29 -84,15c-196,-32 -821,-120 -835,-118c-8,2 39,15 104,30c66,15 170,39 230,52c61,14 207,39 325,56c254,36 260,37 260,51c0,7 -21,9 -62,6l-63,-6l63,15c51,13 62,19 63,37c1,26 -2,81 -5,84c-1,1 -58,-6 -126,-17c-144,-23 -336,-36 -305,-21c11,5 112,24 224,41c113,16 207,33 210,35c6,7 4,105 -3,112c-3,3 -63,-4 -133,-16c-138,-23 -384,-53 -390,-48c-4,5 279,84 366,103c36,7 85,14 109,14c54,0 58,7 53,109c-1,14 -10,21 -33,24l-33,4l33,1l32,2l0,55c0,46 -3,55 -17,55c-10,0 -137,-18 -283,-40c-145,-21 -266,-37 -268,-35c-2,1 45,19 105,39c76,25 155,42 268,56c88,12 169,25 180,30c27,12 -30,13 -532,15l-413,1l0,-41zm608,9c-7,-7 -176,-34 -203,-33c-11,1 25,9 80,19c116,20 130,22 123,14zm-260,-11c-10,-2 -26,-2 -35,0c-10,3 -2,5 17,5c19,0 27,-2 18,-5zm15,-30c-7,-2 -19,-2 -25,0c-7,3 -2,5 12,5c14,0 19,-2 13,-5zm186,-77c-15,-15 -471,-107 -523,-105c-44,1 205,61 349,83c164,26 180,28 174,22zm271,-51c-97,-20 -300,-48 -305,-43c-6,5 308,56 345,56c14,0 -4,-6 -40,-13zm30,-76c-76,-19 -300,-52 -307,-45c-2,2 38,11 89,20c51,9 127,23 168,30c109,20 137,17 50,-5zm-237,-226c-7,-2 -21,-2 -30,0c-10,3 -4,5 12,5c17,0 24,-2 18,-5zm-113,-19c-63,-12 -220,-28 -190,-19c27,9 194,33 225,33c17,0 1,-6 -35,-14zm-61,-68c-5,-6 -380,-66 -400,-65c-19,1 66,25 171,48c74,17 241,29 229,17zm149,-91c-8,-8 -181,-45 -208,-44c-14,1 22,11 80,24c111,24 136,28 128,20zm-241,-51c-3,-3 -12,-4 -19,-1c-8,3 -5,6 6,6c11,1 17,-2 13,-5zm-300,-20c-3,-3 -12,-4 -19,-1c-8,3 -5,6 6,6c11,1 17,-2 13,-5zm266,-91c-7,-2 -21,-2 -30,0c-10,3 -4,5 12,5c17,0 24,-2 18,-5zm487,-98c0,-4 -38,-15 -105,-31c-51,-12 -22,5 36,20c61,17 69,18 69,11zm-227,-31c-54,-17 -112,-26 -234,-33c-90,-6 -164,-9 -166,-7c-6,5 115,26 277,46c187,25 211,23 123,-6zm70,-51c-7,-2 -21,-2 -30,0c-10,3 -4,5 12,5c17,0 24,-2 18,-5zm-66,-59c-5,-5 -359,-54 -391,-54c-45,0 127,35 259,53c50,7 139,7 132,1zm-514,-101c-7,-2 -19,-2 -25,0c-7,3 -2,5 12,5c14,0 19,-2 13,-5zm652,-82c-21,-9 -157,-24 -140,-16c12,6 113,22 140,23l20,1l-20,-8zm-535,-81c-34,-11 -60,-11 -35,0c11,5 29,8 40,8c16,0 15,-2 -5,-8zm495,-131c-99,-21 -191,-38 -204,-36c-34,3 295,75 344,75c23,0 -36,-16 -140,-39zm-85,-144c-52,-13 -96,-22 -98,-21c-1,2 12,13 30,25c25,16 48,20 98,20l65,-1l-95,-23zm318,-80c-29,-16 -260,-58 -287,-53c-21,5 102,35 209,52c112,17 109,17 78,1zm-851,-71c-3,-3 -12,-4 -19,-1c-8,3 -5,6 6,6c11,1 17,-2 13,-5zm664,-13c-14,-11 -43,-22 -65,-26c-200,-32 -481,-74 -483,-71c-10,10 242,69 382,90c199,30 196,30 166,7zm-504,-147c-3,-3 -12,-4 -19,-1c-8,3 -5,6 6,6c11,1 17,-2 13,-5zm-44,-11c-7,-2 -21,-2 -30,0c-10,3 -4,5 12,5c17,0 24,-2 18,-5z"/>
   <path id="svg_5" d="m877.72741,9352.18042c-182,-35 -596,-93 -662,-94c-7,0 -13,-6 -13,-13c0,-8 14,-12 43,-10l42,2l-42,-11c-38,-10 -43,-14 -43,-39c0,-26 3,-28 28,-24c50,9 605,94 752,115c192,28 180,23 180,76c0,55 15,55 -285,-2zm112,-30c-3,-3 -12,-4 -19,-1c-8,3 -5,6 6,6c11,1 17,-2 13,-5zm-67,-14c-93,-19 -580,-100 -601,-99c-38,2 234,56 367,74c67,8 141,19 165,24c24,5 58,9 74,9c29,0 29,-1 -5,-8z"/>
   <path id="svg_6" d="m837.72741,9228.18042c-330,-49 -626,-97 -633,-104c-19,-20 35,-16 236,17c125,20 324,50 442,67c273,38 280,39 280,50c0,15 -43,11 -325,-30z"/>
   <path id="svg_7" d="m1097.72741,9197.18042c-27,-4 -124,-18 -215,-29c-732,-94 -680,-85 -680,-111c0,-18 5,-19 53,-15l52,5l-49,-12c-27,-7 -51,-18 -54,-25c-5,-16 -1,-16 125,13c61,13 193,34 294,45c101,11 244,30 317,41c73,11 138,19 145,16c7,-2 -30,-14 -81,-26c-172,-41 -386,-73 -520,-78c-96,-4 -135,-9 -139,-19c-2,-7 -23,-15 -46,-19c-88,-13 -95,-16 -101,-40c-11,-43 2,-57 48,-51l41,5l-39,-13c-34,-11 -53,-30 -55,-58c-1,-13 56,-9 301,17c265,29 357,37 343,30c-9,-4 -610,-95 -628,-95c-4,0 -7,-7 -7,-16c0,-10 6,-14 18,-10c35,10 234,37 239,33c6,-6 -68,-22 -174,-37l-81,-12l-4,-42c-6,-50 -1,-66 21,-67c11,0 10,-3 -5,-9c-17,-7 -21,-16 -20,-42l2,-33l59,2l60,2l-59,-12l-59,-12l-2,-108c0,-60 2,-110 5,-112c3,-1 61,8 130,21c166,32 176,25 14,-10c-71,-15 -135,-30 -141,-32c-18,-5 -16,-54 2,-54c8,0 64,7 126,16c61,8 121,14 133,12c11,-2 -44,-13 -124,-24c-112,-15 -145,-23 -145,-34c0,-13 66,-15 481,-18l482,-2l4,32c3,18 4,71 4,118l-1,85l-50,-3c-27,-2 -142,-18 -255,-37c-113,-18 -232,-36 -265,-39l-60,-5l55,14c114,30 250,54 403,71c144,15 159,19 166,38c8,25 7,228 -2,242c-3,6 -2,16 4,24c5,8 9,23 9,33c0,15 -11,17 -82,18l-83,1l60,14c33,8 70,16 82,19c20,5 22,10 20,71l-2,66l-60,-6c-33,-3 -91,-8 -130,-11c-53,-3 -41,0 54,15c68,11 126,22 128,24c9,9 7,239 -2,241c-5,2 -32,-1 -60,-6zm-106,-234c-6,-5 -266,-45 -288,-44c-9,1 40,12 109,24c122,22 188,30 179,20zm-326,-52c-7,-2 -19,-2 -25,0c-7,3 -2,5 12,5c14,0 19,-2 13,-5zm230,0c-7,-2 -19,-2 -25,0c-7,3 -2,5 12,5c14,0 19,-2 13,-5zm-300,-10c-7,-2 -19,-2 -25,0c-7,3 -2,5 12,5c14,0 19,-2 13,-5zm322,-53c-16,-4 -39,-8 -50,-8c-16,0 -15,2 5,8c14,4 36,8 50,8c22,0 22,-1 -5,-8zm-108,-106c-3,-3 -12,-4 -19,-1c-8,3 -5,6 6,6c11,1 17,-2 13,-5zm228,-49c-38,-13 -131,-30 -205,-39c-74,-9 -188,-23 -253,-31c-190,-24 -178,-15 23,16c102,16 244,39 315,53c170,31 213,32 120,1zm-475,-31c-82,-14 -116,-17 -108,-9c7,7 114,23 153,23c17,-1 -4,-6 -45,-14zm-162,-61c-10,-2 -26,-2 -35,0c-10,3 -2,5 17,5c19,0 27,-2 18,-5zm267,-124c-51,-10 -92,-10 -50,1c17,4 44,8 60,8c25,0 24,-2 -10,-9zm334,7c-7,-7 -340,-57 -353,-53c-17,6 258,53 328,56c16,0 27,-1 25,-3z"/>
  </g>
 </g>
</svg>